<svg width="46" height="17" viewBox="0 0 46 17" fill="none" xmlns="http://www.w3.org/2000/svg">
<path d="M30.3858 12.5447V10.5847H25.4718V9.40868L30.1478 2.74468H31.8558V9.29668H33.2278V10.5847H31.8558V12.5447H30.3858ZM27.0818 9.29668H30.4698V4.38268L27.0818 9.29668ZM35.1744 12.6287C34.8944 12.6287 34.6611 12.54 34.4744 12.3627C34.2971 12.176 34.2084 11.9567 34.2084 11.7047C34.2084 11.4433 34.2971 11.224 34.4744 11.0467C34.6611 10.86 34.8944 10.7667 35.1744 10.7667C35.4544 10.7667 35.6831 10.86 35.8604 11.0467C36.0378 11.224 36.1264 11.4433 36.1264 11.7047C36.1264 11.9567 36.0378 12.176 35.8604 12.3627C35.6831 12.54 35.4544 12.6287 35.1744 12.6287ZM41.0236 12.7127C40.3703 12.7127 39.7776 12.596 39.2456 12.3627C38.7229 12.12 38.3029 11.784 37.9856 11.3547C37.6776 10.9253 37.5236 10.4213 37.5236 9.84268C37.5236 9.25468 37.6869 8.72734 38.0136 8.26068C38.3496 7.79401 38.7929 7.47668 39.3436 7.30868C38.8489 7.11268 38.4663 6.82801 38.1956 6.45468C37.9249 6.07201 37.7896 5.65201 37.7896 5.19468C37.7896 4.71868 37.9156 4.28468 38.1676 3.89268C38.4196 3.49134 38.7836 3.17401 39.2596 2.94068C39.7449 2.69801 40.3329 2.57668 41.0236 2.57668C41.7143 2.57668 42.2976 2.69801 42.7736 2.94068C43.2589 3.17401 43.6276 3.49134 43.8796 3.89268C44.1316 4.28468 44.2576 4.71868 44.2576 5.19468C44.2576 5.64268 44.1176 6.06268 43.8376 6.45468C43.5669 6.83734 43.1843 7.12201 42.6896 7.30868C43.2403 7.48601 43.6789 7.80801 44.0056 8.27468C44.3416 8.73201 44.5096 9.25468 44.5096 9.84268C44.5096 10.4213 44.3556 10.9253 44.0476 11.3547C43.7396 11.784 43.3196 12.12 42.7876 12.3627C42.2649 12.596 41.6769 12.7127 41.0236 12.7127ZM41.0236 6.83268C41.5649 6.83268 41.9896 6.69268 42.2976 6.41268C42.6149 6.13268 42.7736 5.77334 42.7736 5.33468C42.7736 4.84001 42.6196 4.46201 42.3116 4.20068C42.0036 3.93934 41.5743 3.80868 41.0236 3.80868C40.4729 3.80868 40.0436 3.93934 39.7356 4.20068C39.4276 4.46201 39.2736 4.84001 39.2736 5.33468C39.2736 5.77334 39.4276 6.13268 39.7356 6.41268C40.0436 6.69268 40.4729 6.83268 41.0236 6.83268ZM41.0236 11.4527C41.6956 11.4527 42.1996 11.294 42.5356 10.9767C42.8716 10.65 43.0396 10.2347 43.0396 9.73068C43.0396 9.17068 42.8576 8.74134 42.4936 8.44268C42.1389 8.13468 41.6489 7.98068 41.0236 7.98068C40.3983 7.98068 39.9036 8.13468 39.5396 8.44268C39.1756 8.74134 38.9936 9.17068 38.9936 9.73068C38.9936 10.2347 39.1616 10.65 39.4976 10.9767C39.8429 11.294 40.3516 11.4527 41.0236 11.4527Z" fill="black"/>
<g clip-path="url(#clip0_13685_424)">
<path d="M16.8909 6.18216C16.7862 5.85817 16.4988 5.62806 16.1588 5.59742L11.5408 5.1781L9.7147 0.903944C9.58006 0.590703 9.27341 0.387939 8.9327 0.387939C8.59199 0.387939 8.28534 0.590703 8.1507 0.904676L6.3246 5.1781L1.70583 5.59742C1.36646 5.6288 1.07984 5.85817 0.974486 6.18216C0.869137 6.50614 0.96643 6.86149 1.22315 7.0855L4.71384 10.1469L3.68452 14.681C3.6092 15.0144 3.7386 15.359 4.01521 15.559C4.1639 15.6664 4.33785 15.7211 4.51327 15.7211C4.66452 15.7211 4.81455 15.6803 4.9492 15.5998L8.9327 13.219L12.9147 15.5998C13.2061 15.7751 13.5734 15.7591 13.8495 15.559C14.1262 15.3584 14.2555 15.0137 14.1801 14.681L13.1508 10.1469L16.6415 7.08611C16.8982 6.86149 16.9963 6.50675 16.8909 6.18216Z" fill="#FFB624"/>
</g>
<defs>
<clipPath id="clip0_13685_424">
<rect width="16" height="16" fill="white" transform="translate(0.932617 0.0446777)"/>
</clipPath>
</defs>
</svg>
