<svg width="20" height="21" viewBox="0 0 20 21" fill="none" xmlns="http://www.w3.org/2000/svg">
<path d="M10.001 0.925293C4.47897 0.925293 0.000976562 5.40329 0.000976562 10.9253C0.000976562 16.4473 4.47897 20.9253 10.001 20.9253C15.523 20.9253 20.001 16.4473 20.001 10.9253C20.001 5.40329 15.523 0.925293 10.001 0.925293ZM15.7085 13.2927C15.6808 13.904 15.5836 14.3213 15.4417 14.6866C15.1433 15.4579 14.5336 16.0677 13.7623 16.366C13.3971 16.5079 12.9796 16.6049 12.3685 16.6328C11.7562 16.6608 11.5606 16.6675 10.0011 16.6675C8.44153 16.6675 8.24606 16.6608 7.63358 16.6328C7.02246 16.6049 6.60498 16.5079 6.23984 16.366C5.85654 16.2218 5.50955 15.9958 5.22269 15.7036C4.93063 15.4169 4.70465 15.0697 4.56046 14.6866C4.41855 14.3214 4.32135 13.904 4.29358 13.2928C4.26535 12.6804 4.25879 12.4847 4.25879 10.9253C4.25879 9.36584 4.26535 9.17023 4.29343 8.55789C4.3212 7.94662 4.41824 7.5293 4.56015 7.164C4.70435 6.78085 4.93048 6.43372 5.22269 6.147C5.5094 5.8548 5.85654 5.62881 6.23969 5.48462C6.60498 5.34271 7.02231 5.24567 7.63358 5.21774C8.24591 5.18982 8.44153 5.18311 10.001 5.18311C11.5604 5.18311 11.756 5.18982 12.3684 5.2179C12.9796 5.24567 13.397 5.34271 13.7623 5.48447C14.1454 5.62866 14.4926 5.8548 14.7794 6.147C15.0715 6.43387 15.2976 6.78085 15.4417 7.164C15.5837 7.5293 15.6808 7.94662 15.7087 8.55789C15.7366 9.17023 15.7432 9.36584 15.7432 10.9253C15.7432 12.4847 15.7366 12.6804 15.7085 13.2927Z" fill="white"/>
</svg>
